<svg width="30" height="30" viewBox="0 0 30 30" fill="none" xmlns="http://www.w3.org/2000/svg">
<path opacity="0.5" d="M23.75 7.5H6.25C5.25544 7.5 4.30161 7.89509 3.59835 8.59835C2.89509 9.30161 2.5 10.2554 2.5 11.25V14.65L11.0463 17.5H18.9538L27.5 14.65V11.25C27.5 10.2554 27.1049 9.30161 26.4017 8.59835C25.6984 7.89509 24.7446 7.5 23.75 7.5Z" fill="#042F2E" fill-opacity="0.64"/>
<path d="M12.5 7.5V6.25H17.5V7.5H20V6.25C20 5.58696 19.7366 4.95107 19.2678 4.48223C18.7989 4.01339 18.163 3.75 17.5 3.75H12.5C11.837 3.75 11.2011 4.01339 10.7322 4.48223C10.2634 4.95107 10 5.58696 10 6.25V7.5H12.5ZM11.0463 17.5L2.5 14.65V22.5C2.50099 23.4943 2.8964 24.4475 3.59945 25.1506C4.30249 25.8536 5.25574 26.249 6.25 26.25H23.75C24.7443 26.249 25.6975 25.8536 26.4006 25.1506C27.1036 24.4475 27.499 23.4943 27.5 22.5V14.65L18.9538 17.5H11.0463Z" fill="#042F2E" fill-opacity="0.64"/>
</svg>
