<svg width="38" height="38" viewBox="0 0 38 38" fill="none" xmlns="http://www.w3.org/2000/svg">
<path opacity="0.25" d="M32.0309 11.4633L19.0001 19L5.96924 11.4633C6.23786 11.001 6.61915 10.6143 7.07757 10.3391L17.4167 4.36997C18.3984 3.8158 19.6017 3.8158 20.5834 4.36997L30.9226 10.3391C31.3817 10.6131 31.7633 11.001 32.0309 11.4633Z" fill="#8AF0B2" fill-opacity="0.69"/>
<path opacity="0.5" d="M19.0001 19V34.0416C18.5009 34.0404 18.0085 33.9267 17.5593 33.7091L7.12508 27.6766C6.64416 27.399 6.24472 26.9997 5.96681 26.519C5.68891 26.0382 5.54232 25.4928 5.54175 24.9375V13.0625C5.54436 12.5015 5.6916 11.9507 5.96925 11.4633L19.0001 19Z" fill="#8AF0B2" fill-opacity="0.69"/>
<path d="M32.4583 13.0625V24.9375C32.4578 25.4928 32.3112 26.0382 32.0333 26.519C31.7554 26.9997 31.3559 27.399 30.875 27.6766L20.3933 33.725C19.9579 33.9308 19.4813 34.0385 19 34.0416V19L32.0308 11.4633C32.3079 11.951 32.4552 12.502 32.4583 13.0625Z" fill="#8AF0B2" fill-opacity="0.69"/>
</svg>
