<svg width="87" height="11" viewBox="0 0 87 11" fill="none" xmlns="http://www.w3.org/2000/svg">
<path d="M0.64 0.679999H11.2V2.44H3.04V4.74H7.8V6.5H3.04V9.12H11.3V11H0.64V0.679999ZM15.7377 0.679999H26.1777V2.56H18.1377V5.28H22.4777V7.16H18.1377V11H15.7377V0.679999ZM29.1556 0.679999H39.5956V2.56H31.5556V5.28H35.8956V7.16H31.5556V11H29.1556V0.679999ZM44.9736 0.679999V11H42.5736V0.679999H44.9736ZM58.9094 2.56H52.4294V9.12H58.9094V6.88L61.3094 7.38V8.56C61.3094 9 61.3094 9.96 60.7494 10.5C60.2494 10.98 59.4094 11 58.7494 11H52.5894C51.9294 11 51.0894 10.98 50.5894 10.5C50.0294 9.96 50.0294 9 50.0294 8.56V3.12C50.0294 2.68 50.0294 1.72 50.5894 1.18C51.0894 0.699999 51.9294 0.679999 52.5894 0.679999H58.7494C59.4094 0.679999 60.2494 0.699999 60.7494 1.18C61.3094 1.72 61.3094 2.68 61.3094 3.12V4.14L58.9094 4.52V2.56ZM68.665 0.679999V11H66.265V0.679999H68.665ZM73.7208 8.56V3.12C73.7208 2.68 73.7208 1.72 74.2808 1.18C74.7808 0.699999 75.6208 0.679999 76.2808 0.679999H83.8808C84.5408 0.679999 85.3808 0.699999 85.8808 1.18C86.4408 1.72 86.4408 2.68 86.4408 3.12V8.56C86.4408 9 86.4408 9.96 85.8808 10.5C85.3808 10.98 84.5408 11 83.8808 11H76.2808C75.6208 11 74.7808 10.98 74.2808 10.5C73.7208 9.96 73.7208 9 73.7208 8.56ZM76.1208 9.12H84.0408V2.56H76.1208V9.12Z" fill="#D4D4D8"/>
</svg>
